<?xml version="1.0" encoding="UTF-8"?>
<svg width="512" height="512" viewBox="0 0 512 512" fill="none" xmlns="http://www.w3.org/2000/svg">
  <!-- Background Circle -->
  <circle cx="256" cy="256" r="248" fill="url(#gradient)" stroke="url(#stroke-gradient)" stroke-width="16"/>
  
  <!-- Newspaper Base -->
  <path d="M176 156H336C348.15 156 358 165.85 358 178V334C358 346.15 348.15 356 336 356H176C163.85 356 154 346.15 154 334V178C154 165.85 163.85 156 176 156Z" fill="white" stroke="#1E40AF" stroke-width="16" stroke-linejoin="round"/>
  
  <!-- Neural Network Lines -->
  <path d="M184 216H328" stroke="#1E40AF" stroke-width="12" stroke-linecap="round"/>
  <path d="M184 256H328" stroke="#1E40AF" stroke-width="12" stroke-linecap="round"/>
  <path d="M184 296H328" stroke="#1E40AF" stroke-width="12" stroke-linecap="round"/>
  
  <!-- Neural Network Nodes -->
  <circle cx="184" cy="216" r="8" fill="#1E40AF"/>
  <circle cx="256" cy="216" r="8" fill="#1E40AF"/>
  <circle cx="328" cy="216" r="8" fill="#1E40AF"/>
  <circle cx="184" cy="256" r="8" fill="#1E40AF"/>
  <circle cx="256" cy="256" r="8" fill="#1E40AF"/>
  <circle cx="328" cy="256" r="8" fill="#1E40AF"/>
  <circle cx="184" cy="296" r="8" fill="#1E40AF"/>
  <circle cx="256" cy="296" r="8" fill="#1E40AF"/>
  <circle cx="328" cy="296" r="8" fill="#1E40AF"/>
  
  <!-- Verification Checkmark -->
  <path d="M256 120L296 160L216 240" stroke="#1E40AF" stroke-width="24" stroke-linecap="round" stroke-linejoin="round"/>
  
  <!-- Gradients -->
  <defs>
    <linearGradient id="gradient" x1="0" y1="0" x2="512" y2="512" gradientUnits="userSpaceOnUse">
      <stop offset="0%" stop-color="#EEF2FF"/>
      <stop offset="100%" stop-color="#E0E7FF"/>
    </linearGradient>
    <linearGradient id="stroke-gradient" x1="0" y1="0" x2="512" y2="512" gradientUnits="userSpaceOnUse">
      <stop offset="0%" stop-color="#1E40AF"/>
      <stop offset="100%" stop-color="#3B82F6"/>
    </linearGradient>
  </defs>
</svg>