<svg width="512" height="512" viewBox="0 0 512 512" fill="none" xmlns="http://www.w3.org/2000/svg">
  <rect width="512" height="512" rx="100" fill="#1E40AF"/>
  <path d="M256 128C194.144 128 144 178.144 144 240C144 280.604 166.452 315.641 200 334.487V384H312V334.487C345.548 315.641 368 280.604 368 240C368 178.144 317.856 128 256 128ZM292 358V364H220V358H292ZM256 308C208.056 308 169.333 269.277 169.333 221.333C169.333 173.39 208.056 134.667 256 134.667C303.944 134.667 342.667 173.39 342.667 221.333C342.667 269.277 303.944 308 256 308Z" fill="white"/>
  <path d="M256 160C221.489 160 193.333 188.156 193.333 222.667C193.333 257.178 221.489 285.333 256 285.333C290.511 285.333 318.667 257.178 318.667 222.667C318.667 188.156 290.511 160 256 160ZM256 260C235.147 260 218.667 243.52 218.667 222.667C218.667 201.813 235.147 185.333 256 185.333C276.853 185.333 293.333 201.813 293.333 222.667C293.333 243.52 276.853 260 256 260Z" fill="white"/>
</svg>